<svg width="70" height="13" viewBox="0 0 70 13" fill="none" xmlns="http://www.w3.org/2000/svg">
<path d="M7.92143 4.83452L6.40831 0L4.89532 4.83452H0L3.96072 7.82226L2.44773 12.6574L6.40831 9.6684L10.369 12.6574L8.85604 7.82226L12.8168 4.83452H7.92143Z" fill="#CC5520"/>
<path d="M22.4375 4.83452L20.9246 0L19.4114 4.83452H14.5161L18.4768 7.82226L16.9638 12.6574L20.9246 9.6684L24.8853 12.6574L23.3722 7.82226L27.3329 4.83452H22.4375Z" fill="#CC5520"/>
<path d="M36.9537 4.83452L35.4407 0L33.9277 4.83452H29.0322L32.9929 7.82226L31.48 12.6574L35.4407 9.6684L39.4014 12.6574L37.8884 7.82226L41.849 4.83452H36.9537Z" fill="#CC5520"/>
<path d="M50.6259 4.83452L49.1129 0L47.5999 4.83452H42.7046L46.6653 7.82226L45.1522 12.6574L49.1129 9.6684L53.0736 12.6574L51.5606 7.82226L55.5213 4.83452H50.6259Z" fill="#CC5520"/>
<path d="M62.7859 0L61.2728 4.83452H56.3774L60.3382 7.82226L58.8252 12.6574L62.7859 9.6684L66.7465 12.6574L65.2335 7.82226L69.1942 4.83452H64.2989L62.7859 0Z" fill="#CC5520"/>
</svg>
